<?xml version="1.0" standalone="no"?><!DOCTYPE svg PUBLIC "-//W3C//DTD SVG 1.1//EN" "http://www.w3.org/Graphics/SVG/1.1/DTD/svg11.dtd"><svg xmlns:xlink="http://www.w3.org/1999/xlink" version="1.1" class="highcharts-root" style="font-family:&quot;Lucida Grande&quot;, &quot;Lucida Sans Unicode&quot;, Arial, Helvetica, sans-serif;font-size:12px;" xmlns="http://www.w3.org/2000/svg" width="600" height="400"><desc>Created with Highstock 6.0.4</desc><defs><clipPath id="highcharts-gjgqxk7-6"><rect x="0" y="0" width="534" height="280" fill="none"></rect></clipPath><clipPath id="highcharts-gjgqxk7-7"><rect x="0" y="0" width="534" height="280" fill="none"></rect></clipPath></defs><rect fill="#ffffff" class="highcharts-background" x="0" y="0" width="600" height="400" rx="0" ry="0"></rect><rect fill="none" class="highcharts-plot-background" x="56" y="47" width="534" height="280"></rect><g class="highcharts-pane-group"></g><g class="highcharts-grid highcharts-xaxis-grid "><path fill="none" class="highcharts-grid-line" d="M 189.5 47 L 189.5 327" opacity="1"></path><path fill="none" class="highcharts-grid-line" d="M 322.5 47 L 322.5 327" opacity="1"></path><path fill="none" class="highcharts-grid-line" d="M 456.5 47 L 456.5 327" opacity="1"></path><path fill="none" class="highcharts-grid-line" d="M 589.5 47 L 589.5 327" opacity="1"></path><path fill="none" class="highcharts-grid-line" d="M 55.5 47 L 55.5 327" opacity="1"></path></g><g class="highcharts-grid highcharts-yaxis-grid "><path fill="none" stroke="#e6e6e6" stroke-width="1" class="highcharts-grid-line" d="M 56 327.5 L 590 327.5" opacity="1"></path><path fill="none" stroke="#e6e6e6" stroke-width="1" class="highcharts-grid-line" d="M 56 280.5 L 590 280.5" opacity="1"></path><path fill="none" stroke="#e6e6e6" stroke-width="1" class="highcharts-grid-line" d="M 56 234.5 L 590 234.5" opacity="1"></path><path fill="none" stroke="#e6e6e6" stroke-width="1" class="highcharts-grid-line" d="M 56 187.5 L 590 187.5" opacity="1"></path><path fill="none" stroke="#e6e6e6" stroke-width="1" class="highcharts-grid-line" d="M 56 140.5 L 590 140.5" opacity="1"></path><path fill="none" stroke="#e6e6e6" stroke-width="1" class="highcharts-grid-line" d="M 56 94.5 L 590 94.5" opacity="1"></path><path fill="none" stroke="#e6e6e6" stroke-width="1" class="highcharts-grid-line" d="M 56 46.5 L 590 46.5" opacity="1"></path></g><rect fill="none" class="highcharts-plot-border" x="56" y="47" width="534" height="280"></rect><g class="highcharts-axis highcharts-xaxis "><path fill="none" class="highcharts-tick" stroke="#ccd6eb" stroke-width="1" d="M 189.5 327 L 189.5 337" opacity="1"></path><path fill="none" class="highcharts-tick" stroke="#ccd6eb" stroke-width="1" d="M 322.5 327 L 322.5 337" opacity="1"></path><path fill="none" class="highcharts-tick" stroke="#ccd6eb" stroke-width="1" d="M 456.5 327 L 456.5 337" opacity="1"></path><path fill="none" class="highcharts-tick" stroke="#ccd6eb" stroke-width="1" d="M 590.5 327 L 590.5 337" opacity="1"></path><path fill="none" class="highcharts-tick" stroke="#ccd6eb" stroke-width="1" d="M 55.5 327 L 55.5 337" opacity="1"></path><path fill="none" class="highcharts-axis-line" stroke="#ccd6eb" stroke-width="1" d="M 56 327.5 L 590 327.5"></path></g><g class="highcharts-axis highcharts-yaxis "><text x="24.046875" text-anchor="middle" transform="translate(0,0) rotate(270 24.046875 187)" class="highcharts-axis-title" style="color:#666666;fill:#666666;" y="187"><tspan>Values</tspan></text><path fill="none" class="highcharts-axis-line" d="M 56 47 L 56 327"></path></g><g class="highcharts-series-group"><g class="highcharts-series highcharts-series-0 highcharts-line-series highcharts-color-0 " transform="translate(56,47) scale(1 1)" clip-path="url(#highcharts-gjgqxk7-7)"><path fill="none" d="M 66.75 233.33333333333334 L 200.25 140 L 333.75 186.66666666666669 L 467.25 93.33333333333334" class="highcharts-graph" stroke="#7cb5ec" stroke-width="2" stroke-linejoin="round" stroke-linecap="round"></path></g><g class="highcharts-markers highcharts-series-0 highcharts-line-series highcharts-color-0 " transform="translate(56,47) scale(1 1)" clip-path="none"><path fill="#7cb5ec" d="M 70 233 A 4 4 0 1 1 69.99999800000016 232.99600000066667 Z" class="highcharts-point highcharts-color-0"></path><path fill="#7cb5ec" d="M 204 140 A 4 4 0 1 1 203.99999800000018 139.99600000066667 Z" class="highcharts-point highcharts-color-0"></path><path fill="#7cb5ec" d="M 337 187 A 4 4 0 1 1 336.9999980000002 186.99600000066667 Z" class="highcharts-point highcharts-color-0"></path><path fill="#7cb5ec" d="M 471 93 A 4 4 0 1 1 470.9999980000002 92.99600000066667 Z" class="highcharts-point highcharts-color-0"></path></g><g class="highcharts-series highcharts-series-1 highcharts-line-series highcharts-color-1 " transform="translate(56,47) scale(1 1)" clip-path="url(#highcharts-gjgqxk7-7)"><path fill="none" d="M 66.75 46.666666666666686 L 200.25 140 L 333.75 93.33333333333334 L 467.25 186.66666666666669" class="highcharts-graph" stroke="#434348" stroke-width="2" stroke-linejoin="round" stroke-linecap="round"></path></g><g class="highcharts-markers highcharts-series-1 highcharts-line-series highcharts-color-1 " transform="translate(56,47) scale(1 1)" clip-path="none"><path fill="#434348" d="M 66 43 L 70 47 66 51 62 47 Z" class="highcharts-point highcharts-color-1"></path><path fill="#434348" d="M 200 136 L 204 140 200 144 196 140 Z" class="highcharts-point highcharts-color-1"></path><path fill="#434348" d="M 333 89 L 337 93 333 97 329 93 Z" class="highcharts-point highcharts-color-1"></path><path fill="#434348" d="M 467 183 L 471 187 467 191 463 187 Z" class="highcharts-point highcharts-color-1"></path></g></g><text x="300" text-anchor="middle" class="highcharts-title" style="color:#333333;font-size:18px;fill:#333333;" y="24"><tspan>My Chart</tspan></text><text x="300" text-anchor="middle" class="highcharts-subtitle" style="color:#666666;fill:#666666;" y="46"></text><g class="highcharts-legend" transform="translate(212,360)"><rect fill="none" class="highcharts-legend-box" rx="0" ry="0" x="0" y="0" width="175" height="25" visibility="visible"></rect><g><g><g class="highcharts-legend-item highcharts-line-series highcharts-color-0 highcharts-series-0" transform="translate(8,3)"><path fill="none" d="M 0 11 L 16 11" class="highcharts-graph" stroke="#7cb5ec" stroke-width="2"></path><path fill="#7cb5ec" d="M 12 11 A 4 4 0 1 1 11.999998000000167 10.996000000666664 Z" class="highcharts-point"></path><text x="21" style="color:#333333;font-size:12px;font-weight:bold;cursor:pointer;fill:#333333;" text-anchor="start" y="15"><tspan>Series 1</tspan></text></g><g class="highcharts-legend-item highcharts-line-series highcharts-color-1 highcharts-series-1" transform="translate(97.890625,3)"><path fill="none" d="M 0 11 L 16 11" class="highcharts-graph" stroke="#434348" stroke-width="2"></path><path fill="#434348" d="M 8 7 L 12 11 8 15 4 11 Z" class="highcharts-point"></path><text x="21" y="15" style="color:#333333;font-size:12px;font-weight:bold;cursor:pointer;fill:#333333;" text-anchor="start"><tspan>Series 2</tspan></text></g></g></g></g><g class="highcharts-axis-labels highcharts-xaxis-labels "><text x="122.75" style="color:#666666;cursor:default;font-size:11px;fill:#666666;" text-anchor="middle" transform="translate(0,0)" y="346" opacity="1"><tspan>Jan</tspan></text><text x="256.25" style="color:#666666;cursor:default;font-size:11px;fill:#666666;" text-anchor="middle" transform="translate(0,0)" y="346" opacity="1"><tspan>Feb</tspan></text><text x="389.75" style="color:#666666;cursor:default;font-size:11px;fill:#666666;" text-anchor="middle" transform="translate(0,0)" y="346" opacity="1"><tspan>Mar</tspan></text><text x="523.25" style="color:#666666;cursor:default;font-size:11px;fill:#666666;" text-anchor="middle" transform="translate(0,0)" y="346" opacity="1"><tspan>Apr</tspan></text></g><g class="highcharts-axis-labels highcharts-yaxis-labels "><text x="41" style="color:#666666;cursor:default;font-size:11px;fill:#666666;" text-anchor="end" transform="translate(0,0)" y="332" opacity="1"><tspan>0</tspan></text><text x="41" style="color:#666666;cursor:default;font-size:11px;fill:#666666;" text-anchor="end" transform="translate(0,0)" y="285" opacity="1"><tspan>1</tspan></text><text x="41" style="color:#666666;cursor:default;font-size:11px;fill:#666666;" text-anchor="end" transform="translate(0,0)" y="238" opacity="1"><tspan>2</tspan></text><text x="41" style="color:#666666;cursor:default;font-size:11px;fill:#666666;" text-anchor="end" transform="translate(0,0)" y="192" opacity="1"><tspan>3</tspan></text><text x="41" style="color:#666666;cursor:default;font-size:11px;fill:#666666;" text-anchor="end" transform="translate(0,0)" y="145" opacity="1"><tspan>4</tspan></text><text x="41" style="color:#666666;cursor:default;font-size:11px;fill:#666666;" text-anchor="end" transform="translate(0,0)" y="98" opacity="1"><tspan>5</tspan></text><text x="41" style="color:#666666;cursor:default;font-size:11px;fill:#666666;" text-anchor="end" transform="translate(0,0)" y="52" opacity="1"><tspan>6</tspan></text></g><text x="590" class="highcharts-credits" text-anchor="end" style="cursor:pointer;color:#999999;font-size:9px;fill:#999999;" y="395">Highcharts.com</text></svg>